<svg width="320" height="320" viewBox="0 0 320 320" xmlns="http://www.w3.org/2000/svg" role="img" aria-labelledby="title desc">
  <title id="title">GripNex logo</title>
  <desc id="desc">Stylized lime green footprint with motion streaks beside the GripNex wordmark.</desc>
  <rect width="320" height="320" fill="#0b0c10" rx="24"/>
  <g transform="translate(40 40)">
    <path fill="#61F53A" d="M68 38c0-14 10-26 22-26s22 12 22 26c0 14-10 26-22 26S68 52 68 38zm-40 4c0-10 8-18 18-18s18 8 18 18-8 18-18 18S28 52 28 42zm-8 42c0-10 8-18 18-18s18 8 18 18-8 18-18 18S20 94 20 84zm14 48c0-9 7-16 16-16s16 7 16 16-7 16-16 16-16-7-16-16zm46 18c0-9 7-16 16-16s16 7 16 16-7 16-16 16-16-7-16-16z"/>
    <path fill="#61F53A" d="M76 144c10-30 56-68 78-50 16 14 1 66-14 88-9 14-22 23-38 26-9 1-20-4-26-12-8-11-11-27 0-52z"/>
    <path fill="#61F53A" d="M158 190l60-12c6-1 9 6 3 8l-60 18c-3 1-6-2-5-5 0-4 1-7 2-9z" opacity="0.9"/>
    <path fill="#61F53A" d="M160 164l70-10c6-1 8 7 2 9l-71 18c-3 1-6-2-5-5 1-5 2-9 4-12z" opacity="0.7"/>
    <text x="18" y="238" fill="#f9fafb" font-family="'Inter', Arial, sans-serif" font-size="62" font-weight="700">GRIP</text>
    <text x="178" y="238" fill="#61F53A" font-family="'Inter', Arial, sans-serif" font-size="62" font-weight="700">NEX</text>
  </g>
</svg>